/* XPM */
static char *a57c755b3789426db88a3829d3ae93a92WJSuHQGQWuySyJI[] = {
/* columns rows colors chars-per-pixel */
"64 64 13 1 ",
"  c #541B00",
". c #543608",
"X c #454240",
"o c #474443",
"O c #9C3606",
"+ c #B55616",
"@ c #F77E13",
"# c #338535",
"$ c #328736",
"% c #369639",
"& c #00CF03",
"* c #43A047",
"= c #5AB05D",
/* pixels */
"****====************====************====********====****====****",
"****====************====************====********====****====****",
"****====************====************====********====****====****",
"****====************====************====********====****====****",
"********%%%%****====*******XXXXXXXXX****%%%%****$$$$********%%%%",
"********%%%%****====****XXXXXXXXXXXXXXX*%%%%****$$$$********%%%%",
"********%%%%****====**XXXXXXXXXXXXXXXXXXX%%%****$$$$********%%%%",
"********%%%%****==&=XXXXXXXX+++++++XXXXXXXX%****$$$$********%%%%",
"********$&$$*&**$$XXXXXXXX+++++++++++XXXXXXXX************&**&$$$",
"*&**&***&$$$&***XXXXXXX+++++++++++++++++XXXXXXX*&***&****&*&$$$$",
"*&*&****&$&$&*XXXXXXX+++++@@@+++++@@@+++++XXXXXXX**&****&**&$$$$",
"&&*&*&*#&$&&&XXXXXXX++@@+@@@@+++++@@@@+@@++XXXXXXX*&****&*&&&$$$",
"&&&&&&**#$$&XXXXXX++++@@@@@@@+++++@@@@@@@++++XXXXXX&#**##&&&##**",
"#&#&&##****XXXXXX++++O@@@@@@@+++++@@@@@@@@O+++XXXXXX****##&*****",
"==&#&*****XXXXX+++++@O@@@@@@@+++++@@@@@@@@O+++++XXXXX***********",
"====*****XXXXX++++@@@O@@@@@@@+++++@@@@@@@@O@@++++XXXXX**********",
"$$$$****XXXX.....@@@@O@@@@@@@+++++@@@@@@@@O@@@++++XXXXX*********",
"$$$$****XXX......@@@@O@@@@@@@+++++@@@@@@@@O@@@@+++XXXXX*********",
"$$$$***XXX........@@@O@@@@@@@+++++@@@@@@@@O@@@@@+.....XX********",
"$$$$***XXX.........@@O@@@@@@@+++++@@@@@@@@O@@@@@......XX********",
"******XXX..........@@O@@@@@@@+++++@@@@@@@@O@@@@.......XXX*******",
"******XXXX..........@O@@@@@@@+++++@@@@@@@@O@@@.........XX*******",
"*****XXXX+++.........O@@@@@@@+++++@@@@@@@@O@@@.........XXX******",
"*****XXXX+++@..........@@@@@@+++++@@@@@@@@O@@..........XXX******",
"*****XXXX+++@...........@@@@@+++++@@@@@@@@O@...........XXX%%****",
"*****XXXX+++@@...........@@@@+++++@@@@@@@@O...........XXXX%%****",
"*****XXXX++@@@O...........@@@+++++@@@@@@@@...........+XXXX%%****",
"*****XXXX++@@@O@...........@@+++++@@@@@@...........@++XXXX%%****",
"====*XXXX++@@@O@@..........@@+++++@@@@@...........@@++XXXX$$****",
"====*XXX+++@@@O@@@..........@+++++@@@@..........@O@@+++XXX$$****",
"====*XXX+@@@@@O@@@............++++@@@..........@@O@@@@+XXX$$****",
"====*XXX+@@@@@O@@@@...........++++@...........@@@O@@@@+XXX$$****",
"====*XXX+@@@@@O@@@@@............++...........@@@@O@@@@+XXX$$****",
"****%XXX+@@@@@O@@@@@@.......................@@@@@O@@@@+XXX******",
"****%XXX+@@@@@O@@@@@@O.....................@@@@@@O@@@@+XXX******",
"****%XXX+@@@@@O@@@@@@O....................O@@@@@@O@@@@+XXX******",
"****%XXX+@@@@@O@@@@@@O .................  O@@@@@@O@@@@+XXX******",
"****$XXX++@@@@O@@@@@@O@  .............. @@O@@@@@@O@@@++XXX**====",
"****$XXX++@@@@O@@@@@@O@   ............  @@O@@@@@@O@@@++XXX**====",
"****$XXX++@@@@O@@@@@@O@@@..............@@@O@@@@@@O@@@++XXX**====",
"****$XXX++@@@@O@@@@@@O@@.................@O@@@@@@O@@@++XXX**====",
"*****XXX++@@@@O@@@@@@O@..................@O@@@@@@O@@@++XXX==****",
"*****XXX++@@@@O@@@@@@O...................@O@@@@@@O@@@++XXX=&&***",
"****XXXX++@@@@O@@@@@@.....................O@@@@@@O@@@++XXXX&&***",
"****XXXX++@@@@O@@@@@..........+++...........@@@@@O@@@++XXXX&&***",
"****XXXX++@@@@O@@@@..........++++++..........@@@@O@@@++XXXX$****",
"****XXXX++@@@@O@@@.........@+++++++@..........@@@O@@@++XXXX$****",
"****XXXX++@@@@O@..........@@+++++++@@...........@O@@@++XXXX$****",
"****XXXX++@@@@O..........@@@+++++++@@@...........O@@@++XXXX$****",
"****XXXX++@@@@..........@@@@+++++++@@@@............@@++XXXX*****",
"****XXXX++@@@.........@@@@@@+++++++@@@@@............@++XXXX*****",
"****XXXX++@@..........@@@@@@+++++++@@@@@............@++XXXX&&***",
"****XXXX++...........O@@@@@@+++++++@@@@@@...........@++XXXX&&***",
"=&&&XXXX+...........@O@@@@@@+++++++@@@@@@@..........@++XXXX#####",
"=&&&XXXX+..........@@O@@@@@+++++++++@@@@@@O.........@++XXXX#####",
"=&&&XXXX+.........++++++++++++++++++++++++++.......++++XXXX#####",
"=&&&XXXX+........+++++++++++++++++++++++++++++....+++++XXXX*****",
"oooooooooooo....oooooooooooooooooooooooooooooooooooooooooooooooo",
"oooooooooooooooooooooooooooooooooooooooooooooooooooooooooooooooo",
"oooooooooooooooooooooooooooooooooooooooooooooooooooooooooooooooo",
"oooooooooooooooooooooooooooooooooooooooooooooooooooooooooooooooo",
"oooooooooooooooooooooooooooooooooooooooooooooooooooooooooooooooo",
"oooooooooooooooooooooooooooooooooooooooooooooooooooooooooooooooo",
"oooooooooooooooooooooooooooooooooooooooooooooooooooooooooooooooo"
};
