/* XPM */
static char *_6f32531c82a4484b3e6cfb04a212735IFLEFY1k1oBJT1ei[] = {
/* columns rows colors chars-per-pixel */
"64 64 6 1 ",
"  c #338535",
". c #328736",
"X c #369639",
"o c #00CF03",
"O c #43A047",
"+ c #5AB05D",
/* pixels */
"OOOO++++OOOOOOOOOOOO++++OOOOOOOOOOOO++++OOOOOOOO++++OOOO++++OOOO",
"OOOO++++OOOOOOOOOOOO++++OOOOOOOOOOOO++++OOOOOOOO++++OOOO++++OOOO",
"OOOO++++OOOOOOOOOOOO++++OOOOOOOOOOOO++++OOOOOOOO++++OOOO++++OOOO",
"OOOO++++OOOOOOOOOOOO++++OOOOOOOOOOOO++++OOOOOOOO++++OOOO++++OOOO",
"OOOOOOOOXXXXOOOO++++OOOOOOOO++++OOOOOOOOXXXXOOOO....OOOOOOOOXXXX",
"OOOOOOOOXXXXOOOO++++OOOOOOOO++++OOOOOOOOXXXXOOOO....OOOOOOOOXXXX",
"OOOOOOOOXXXXOOOO++++OOOOOOOO++++OOOOOOOOXXXXOOOO....OOOOOOOOXXXX",
"OOOOOOOOXXXXOOOO++o+OoOOOOOO++++OOOOOOOOXXXXOOOO....OOOOOOOOXXXX",
"OOOOOOOO.o..OoOO..o.oOOOOOOO....OOOOOOOO....OOOOOOOOOOOOOoOOo...",
"OoOOoOOOo...oOOO.o..oOOOOOOO....OOOOOOOO....OOOOoOOOoOOOOoOo....",
"OoOoOOOOo.o.oOOO.o.oooOOOOOO....OOOOOOOOo..oOOOoOOOoOOOOoOOo....",
"ooOoOoO o.ooo.OO  ooo  OOOOO....OOOOOOOOo.o.OOOoOoOoOOOOoOooo...",
"ooooooOO   o.OOOO  oOOOOOOOOOOOOOOOOOOOooOoOoO o+ooo OO  ooo  OO",
" o oo  OOOOOOOOOOOOOOOOOOOOOOOOOOOOOOOOooooooOO   o OOOO  oOOOOO",
"++o oOOOOOOOOOOOOOOOOOOOOOOOOOOOOOOOOO  o oo  OO++++OOOOOOOOOOOO",
"++++OOOOOOOOOOOOOOOOOOOOOOOOOoOOoOOOOOOOOo oOOOO++++OOOOOOOOOOOO",
"....OOOO++++OOOOOOOOo+++oOOOOoOo++++OOOOOOOO++++OOOOOOOOOOOOOOOO",
"....OOOO++++oOOoOOOo+++oOOOOoOOo++++OOOOOOOO++++OOOOOOOOOOOOOOOO",
"....OOOO++++oOoOOOOo+o+oOOOOoOooo+++OOOOOOOO++++OOOOOOOOOOOOOOOO",
"....OOOO+++ooOoOoO o+ooo OO  ooo  ++OOOOOOOO++++OOOOOOOOOOOOOOOO",
"OOOOOOOOOOOooooooOO   o OOOO  oXOOOOOOOOOOOO....OOOO++++OOOOOOOO",
"OOOOOOOOOO  o oo  OO....OOOOXXXXOOOOOOOOOOOO....OOOO++++OOOOOOOO",
"OOOOOOOOOOOOXo oOOOO....OOOOXXXXOOOOOOOOOOOO....OOOO++++OOOOOOOO",
"OOOOOOOOOOOOXXXXOOOO....OOOOXXXXOOOOOOOOOOOO....OOOO++++OOOOOOOO",
"OOOOOOOOOOOO....OOOOOOOOOOOO....OOOO++++OOOOOOOOOOOOOOOOXXXXOOOO",
"OOOOOOOOOOOO....OOOOOOOOOOOO....OOOO++++OOOOOOOOOOOOOOOOXXXXOOOO",
"OOOOOOOOOOOO....OOOOOOOOOOOO....OOOO++++OOOOOOOOOOOOOOOOXXXXOOOO",
"OOOOOOOOOOOO....OOOOOOOOOOOO....OOOO++++OOOOOOOOOOOOOOOOXXXXOOOO",
"++++OOOOOOOOOOOOOOOO++++OOOOOOOOOOOO....OOOOOOOOOOOOOOOO....OOOO",
"++++OOOOOOOOOOOOOOOO++++OOOOOOOOOOOO....OOOOOOOOOOOOOOOO....OOOO",
"++++OOOOOOOOOOOOOOOO++++OOOOOOOOOOOO....OOOOOOOOOOOOOOOO....OOOO",
"++++OOOOOOOOOOOOOOOO++++OOOOOOOOOOOO....OOOOOOOOOOOOOOOO....OOOO",
"++++OOOOOOOOOOOOOOOO++++OOOOOOOOOOOO....OOOOOOOOOOOOOOOO....OOOO",
"OOOOXXXXOOOOOOOO++++OOOOOOOOOOOOOOOOOOOOOOOO++++OOOOOOOOOOOOOOOO",
"OOOOXXXXOOOOOOOO++++OOOOOOOOOOOOOOOOOOOOOOOO++++OOOOOOOOOOOOOOOO",
"OOOOXXXXOOOOOOOO++++OOOOOOOOOOOOOOOOOOOOOOOO++++OOOOOOOOOOOOOOOO",
"OOOOXXXXOOOOOOOO++++OOOOOOOOOOOOOOOOOOOOOOOO++++OOOOOOOOOOOOOOOO",
"OOOO....OOOOOOOO....OOOO++++OOOOOOOOOOOOXXXXOOOOOOOOOOOOOOOO++++",
"OOOO....OOOOOOOO....OOOO++++OOOOOOOOOOOOXXXXOOOOOOOOOOOOOOOO++++",
"OOOO....OOOOOOOO....OOOO++++OOOOOOOOOOOOXXXXOOOOOOOOOOOOOOOO++++",
"OOOO....OOOOOOOO....OOOO++++OOOOOOOOOOOOXXXXOOOOOOOOOOOOOOOO++++",
"OOOOOOOOOOOOOOOOOOOOOOOOOOOOXXXXOOOOOOOO....OOOOOOOOOOOO++++OOOO",
"OOOOOOOOOOOOOOOOOOOOOOOOOOOOXXXXOOOOOOOO....OOOOOOoooOOO+++ooOOO",
"OOOOOOOOOOOOOOOOOOOOOOOOOOOOXXXXOOOOOOOO....OOOOOOoooOOO+++ooOOO",
"OOOOOOOOOOOOOOOOOOOOOOOOOOOOXXXXOOOOOOOO....OOOOOOoooOOO+++ooOOO",
"OOOOOOOOOOOO++++OOOO++++OOoo....OOOOOooOOOOOOOOOOOoooOOOooo.OOOO",
"OOOOOOOOOOOO++++OOOO++++OOoo....OOOOOooOOOOOOOOOOOoooOOOooo.OOOO",
"OOOOOOOOOOOO++++OOOO++++OOoo....OOOOOooOOOOOOOOOOOoooOOOooo.OOOO",
"OOOOooOOOOOOooo+OOOO+++oooOO....OOoooOOOOOOOOOOOooOOOOOOooo.OOOO",
"OOOOooOOXXXXoooOOOOO...oooOOOOOOOOooo+++OOOOOOOOoo++OOOOoooOOOOO",
"OOOOooOOXXXXoooOOOOO...oooOOOOOOOOooo+++OOOOOOOOoo++OOOOoooOOOOO",
"OOOOooOOXoooOOOOOOOO...oooOOoooOOOooo+++OOOOOOOOoo++OooooooooOOO",
"OOOOooOOXoooOOOOOOOO...oooOOoooOOOooo+++OOOOOOOOoo++OooooooooOOO",
"+oooooOO.oooOOOooOOO   oooOOooooooooo  O++++O     ooooooooo     ",
"+oooooOO.oooOOOooOOO   oooOOooooooooo  O++++O     ooooooooo     ",
"+oooooOO.oooOOOooOOO   oooOOooooooooo  O++++O     ooooooooo     ",
"+ooooooooooooooooOOOOOO        ooo   OOO++++OOOO     oooOOOOOOOO",
".oooooooooooooooo+++OOO        ooo   OOO....OOOO     oooOOOO++++",
".oooooooooooooooo+++OOO        ooo   OOO....OOOO     oooOOOO++++",
"    oo   oooooo     OOOOOOOOOOOOXXXXOOOO....OOOOOOOO....OOOO++++",
"    oo   oooooo     OOOOOOOOOOOOXXXXOOOO....OOOOOOOO....OOOO++++",
"    oo   oooooo     OOOOOOOOOOOO....OOOOOOOOOOOOOOOOOOOOOOOO....",
"OOOOOOooo   oooO....OOOOOOOOOOOO....OOOOOOOOOOOOOOOOOOOOOOOO....",
"OOOOOOooo   oooO....OOOOOOOOOOOO....OOOOOOOOOOOOOOOOOOOOOOOO...."
};
