/* XPM */
static char *abd3116a462046d98df054f95129a53e1PURYATWDyk3hD3p[] = {
/* columns rows colors chars-per-pixel */
"64 64 30 1 ",
"  c black",
". c gray14",
"X c #703624",
"o c gray26",
"O c gray35",
"+ c #94472E",
"@ c #E67E22",
"# c #96685A",
"$ c #11AB1B",
"% c #338535",
"& c #328736",
"* c #369639",
"= c #2EBF30",
"- c #00CF03",
"; c #43A047",
": c #5AB05D",
"> c #CC9E12",
", c #E0AD14",
"< c #D9AB2B",
"1 c #F5BA25",
"2 c #F0BB28",
"3 c #FFCE3C",
"4 c #F0C95D",
"5 c #3498DB",
"6 c #2196F3",
"7 c #03A9F4",
"8 c #90A4AE",
"9 c #B0BEC5",
"0 c #CFD8DC",
"q c white",
/* pixels */
";;;;::::;;;;;;;;;;;;::::;;;;;;;;;;;;::::;;;;;;;;::::;;;;::::;;;;",
";;;;::::;;;;;;;;;    :::;;;;;;;;;;;;::::;;;;;    :::;;;;::::;;;;",
";;;;::::;;;;;;;;;    :::;;;;;;;;;;;;::::;;;;;    :::;;;;::::;;;;",
";;;;::::;;;;;    @@@@  :;;;;;;;;;;;;::::;;;  @@qq    ;;;::::;;;;",
";;;;;;;;****;    @@@@  ;;;;;::::;;;;;;;;***  @@qq    ;;;;;;;****",
";;;;;;;;***  @@qqqq  ;;;;;;;::::;;;;;;;;****;  @@qqqq  ;;;;;****",
";;;;;;;;***  @@qqqq  ;;;;;;;::::;;;;;;;;****;  @@qqqq  ;;;;;****",
";;;;;;;;*  @@qqqq  :;-;;;;;;::::;;;;;;;;****;;;  @@qqqq  ;;;****",
";;;;;;;;&  @@qqqq  &-;;;;;;;&&&&;;;;;;;;&&&&;;;  @@qqqq  -;;-&&&",
";-;;-;;;-  @@qqqq  &-;;;;;;;&&&&;;;;;;;;&&&&;;;  @@qqqq  -;-&&&&",
";-;-;;;;-  @@qqqq  ---;;;;;;&&&&;;;;;;;;-&&-;;;  @@qqqq  ;;-&&&&",
"--;-;-;%-  @@qqqq  --&&;;;;;&&&&;;;;;;;;-&-&;;;  @@@@qq  ;---&&&",
"------;;&  @@qqqq  -;;;;;;;;;;;;;;;;;;;--;-;-;&  @@@@qq  ---&&;;",
"%-%--&%;;  @@@@qq@@  ;;;;                ----  @@@@@@qq  %-;;;;;",
"::-%-;;;;  @@@@qq@@  ;;;;                &--&  @@@@@@qq  ;;;;;;;",
"::::;;;;;    @@@@qq@@  qq  5555555555qq55  qq  @@@@@@@@  ;;;;;;;",
"&&&&;;;;:    @@@@qq@@  qq  5555555555qq55  qq  @@@@@@@@  ;;;;;;;",
"&&&&;;;;:::    @@@@@@  qq  555555555555qq55@@  @@@@@@  ;;;;;;;;;",
"&&&&;;;;:::    @@@@@@  qq  555555555555qq55@@  @@@@@@  ;;;;;;;;;",
"&&&&;;;;:::--          @@  555555555555qqqq          ;;;;;;;;;;;",
";;;;;;;;;;;--          @@  555555555555qqqq          :880;;;;;;;",
";;;;;;;;;;%%-%-      @@  55              qq        ;::880;;;;;;;",
";;;;;;;;;;;;*-%      @@  55              qq  9990  ;:800;;;;;;;;",
";;;;;;;;;;;;****;;;    5555              qq  9990;;;:800;;;;;;;;",
";;;;;;;;;;;;&&&&;;;    5555              qq  0 ;99888888****;;;;",
";;;;;;;;;;;;&&&&;;;;;  5555555555    5555qq  0;;99888888****;;;;",
";;;;;;;;;;;;&&&&;;;;   5555555555    5555qq  ;;;;89988;;****;;;;",
";;;;;;;;;;;;&&&&;;; 9  55555555qq    55qqqq  ;;;899999;;*990;;;;",
"::::;;;;;;;;;;;;   979   555555qq    55qqqq  ;;;899999;;&990;;;;",
"::::;;;;;;;;;;;;   979   555555qq    55qqqq  ;;;.99988999990;;;;",
"::::;;;;;;;;;;  999777999  5555qq    55qqqq  ;;;.99988999990;;;;",
"::::;;;;;;;   9977777777799   5qq    55qqqq   ..o.8889998990;;;;",
"::::;;;;;  9997777777777777999  q    55qqqq   ..o.8889998990;;;;",
";;;;*    99777777777777777777799             Xoo. 8899998990;;;;",
";;;;* 999777777777>>>>7777777777998          Xoo. 8899998990;;;;",
";;;;* 9997777777>,,,,,,>77777777998        XX#++5  ;98889990;;;;",
";;;;* 977777777,,>4444>,,7777777668        XX#++5  ;98889990;;;;",
";;;;& 97777777>,>444444>,>777777668 @5555 X##+   ;999999900=====",
";;;;& 9777777>,>411<<114>,>77777668 @5555 X##+   ;999999900=::::",
";;;;&& 997777>,4<<1111<<4,>7777688 @@5555X#++@@qq99990000====:::",
";;;;&& 997777,>4<132231<4>,7777688 @@5555X#++@@qq99990000====:::",
";;;;;; 997777,>4412<<2144>,7777688 @@55XX#+    qq8$$============",
"==;;;; 997777,>4412<<2144>,7777688 @@5.oo+     qq$$$============",
"=====; 997777,>4<132231<4>,7777688 qq .oo+     qq=$$============",
"=$$$$;;  9777>,4<<1111<<4,>77768   q88O..      qq===============",
"=$$$$$$  9777>,>411<<114>,>77768  5588O..55    55===============",
";$$$$$$  97777>,>444444>,>777768  559985555    55===============",
";$$$$$=  977777,,>4444>,,7777768    998      $$$$===============",
";$$$===== 977777>,,,,,,>7777768    8         $$$================",
";$$====== 97777777>>>>777777768 55585  55    $$$================",
";$=====;** 9777777777777777668 555555  55    $$$================",
";$====;;*-- 99777777777777688  5555    5555  ;;$================",
";====-=;*-- 99777777777777688  5555    5555  ;;;================",
":-----==&---  9777777777768  --              %%%================",
":-----=;&---;; 97777777768   --              %%%================",
":-----===---;;; 977777668  =---------    55  %%%&&---------====%",
":--------------- 9977688   ===%---%%%    55  ;;;%%%%%-======;;;;",
"&--------------- 9977688 =====%---%%%;;      ;;;%%%%%---;=;;::::",
"&----------------  998   =====%---%%%;;      ;;;%%%%%---;;;;::::",
"%%%%--%%&------&%      =======;;****;;;;&    ;;;;;;;&&&&;;;;::::",
"%%%%--%%%------%%      ====;;;;;****;;;;&    ;;;;;;;&&&&;;;;::::",
"%%%%--%%%------%%  5555=;;;;;;;;&&&&;;;;;  5555;;;;;;;;;;;;;&&&&",
";;;;;;---%%%---;&  5555;;;;;;;;;&&&&;;;;;  5555;;;;;;;;;;;;;&&&&",
";;;;;;---%%%---;&&&&;;;;;;;;;;;;&&&&;;;;;;;;;;;;;;;;;;;;;;;;&&&&"
};
