/* XPM */
static char *_daa5a702755454d9c2baca17edd99042ZkGSWZd3FiVGI05[] = {
/* columns rows colors chars-per-pixel */
"64 64 10 1 ",
"  c #338535",
". c #328736",
"X c #369639",
"o c #00CF03",
"O c #43A047",
"+ c #5AB05D",
"@ c #B28604",
"# c #FF9800",
"$ c #FFC107",
"% c #FFEB3B",
/* pixels */
"OOOO++++OOOOOOOOOOOO++++OOOOOOOOOOOO++++OOOOOOOO++++OOOO++++OOOO",
"OOOO++++OOOOOOOOOOOO++++OOOOOOOOOOOO++++OOOOOOOO++++OOOO++++OOOO",
"OOOO++++OOOOOOOOOOOO++++OOOOOOOOOOOO++++OOOOOOOO++++OOOO++++OOOO",
"OOOO++++OOOOOOOOOOOO++++OOOOOOOOOOOO++++OOOOOOOO++++OOOO++++OOOO",
"OOOOOOOOXXXXOOOO++++OO@@@@@@@@@@@@@@@@@@@XXXOOOO....OOOOOOOOXXXX",
"OOOOOOOOXXXXOOOO++++OO@@@@@@@@@@@@@@@@@@@XXXOOOO....OOOOOOOOXXXX",
"OOOOOOOOXXXXOOOO++++OO@@@@@@@@@@@@@@@@@@@XXXOOOO....OOOOOOOOXXXX",
"OOOOOOOOXXXXOOOO++o+Oo@@@@@@@@@@@@@@@@@@@XXXOOOO....OOOOOOOOXXXX",
"OOOOOOOO.o..OoO@@@@@@@###################@@@@@@@OOOOOOOOOoOOo...",
"OoOOoOOOo...oOO@@@@@@@###################@@@@@@@oOOOoOOOOoOo....",
"OoOoOOOOo.o.oOO@@@@@@@###################@@@@@@@OOOoOOOOoOOo....",
"ooOoOoO o.o@@@@%%%%$$$$$$$$$$$$$$$$$$$$$$#######@@@@OOOOoOooo...",
"ooooooOO ..@@@@%%%%$$$$$$$$$$$$$$$$$$$$$$#######@@@@ OO  ooo..OO",
" o oo  OOOO@@@@%%%%$$$$$$$$$$$$$$$$$$$$$$#######@@@@OOOO  oOOOOO",
"++o oOOOOOO@@@@%%%%$$$$$$$$$$$$$$$$$$$$$$#######@@@@OOOOOOOOOOOO",
"++++OOOO@@@%%%%$$$$$$$$$$$%%%%###$$$$$$$$$$$$$$$####@@@OOOOOOOOO",
"....OOOO@@@%%%%$$$$$$$$$$$%%%%###$$$$$$$$$$$$$$$####@@@OOOOOOOOO",
"....OOOO@@@%%%%$$$$$$$$$$$%%%%###$$$$$$$$$$$$$$$####@@@OOOOOOOOO",
"....OOOO@@@$$$$$$$$$$$$$$$%%%%###$$$$$$$$$$$$$$$####@@@OOOOOOOOO",
"....OOOO@@@$$$$$$$$$$$$$$$%%%%###$$$$$$$$$$$$$$$####@@@OOOOOOOOO",
"OOOOOOOO@@@$$$$$$$$$$$$$$$%%%%###$$$$$$$$$$$$$$$####@@@+OOOOOOOO",
"OOOOOOOO@@@$$$$$$$$$$$$$$$%%%%###$$$$$$$$$$$$$$$####@@@+OOOOOOOO",
"OOOO@@@@$$$$$$$$$$$$$$$$$$%%%%###$$$$$$$$$$$$$$$$$$$###@@@@OOOOO",
"OOOO@@@@$$$$$$$$$$$$$$$$$$%%%%###$$$$$$$$$$$$$$$$$$$###@@@@OOOOO",
"OOOO@@@@$$$$$$$$$$$$$$$$$$%%%%###$$$$$$$$$$$$$$$$$$$###@@@@XOOOO",
"OOOO@@@@$$$$$$$$$$$$$$$$$$%%%%###$$$$$$$$$$$$$$$$$$$###@@@@XOOOO",
"OOOO@@@@$$$$$$$$$$$$$$$$$$%%%%###$$$$$$$$$$$$$$$$$$$###@@@@XOOOO",
"OOOO@@@@$$$$$$$$$$$$$$$$$$%%%%###$$$$$$$$$$$$$$$$$$$###@@@@XOOOO",
"++++@@@@$$$$$$$$$$$$$$$$$$%%%%###$$$$$$$$$$$$$$$$$$$###@@@@.OOOO",
"++++@@@@%%%$$$$$$$$$$$$$$$%%%%###$$$$$$$$$$$$$$$$$$$###@@@@.OOOO",
"++++@@@@%%%$$$$$$$$$$$$$$$%%%%###$$$$$$$$$$$$$$$$$$$###@@@@.OOOO",
"++++@@@@%%%$$$$$$$$$$$$$$$%%%%###$$$$$$$$$$$$$$$$$$$###@@@@.OOOO",
"++++@@@@%%%$$$$$$$$$$$$$$$%%%%###$$$$$$$$$$$$$$$$$$$###@@@@.OOOO",
"OOOO@@@@%%%$$$$$$$$$$$$$$$%%%%###$$$$$$$$$$$$$$$$$$$###@@@@OOOOO",
"OOOO@@@@%%%$$$$$$$$$$$$$$$%%%%###$$$$$$$$$$$$$$$$$$$###@@@@OOOOO",
"OOOO@@@@%%%$$$$$$$$$$$$$$$%%%%###$$$$$$$$$$$$$$$$$$$###@@@@OOOOO",
"OOOOXXXX@@@$$$$$$$$$$$$$$$%%%%###$$$$$$$$$$$$$$$####@@@OOOOOOOOO",
"OOOO....@@@$$$$$$$$$$$$$$$%%%%###$$$$$$$$$$$$$$$####@@@OOOOO++++",
"OOOO....@@@$$$$$$$$$$$$$$$%%%%###$$$$$$$$$$$$$$$####@@@OOOOO++++",
"OOOO....@@@$$$$$$$$$$$$$$$%%%%###$$$$$$$$$$$$$$$####@@@OOOOO++++",
"OOOO....@@@####$$$$$$$$$$$%%%%###$$$$$$$$$$$$$$$####@@@OOOOO++++",
"OOOOOOOO@@@####$$$$$$$$$$$%%%%###$$$$$$$$$$$$$$$####@@@O++++OOOO",
"OOOOOOOO@@@####$$$$$$$$$$$%%%%###$$$$$$$$$$$$$$$####@@@O+++ooOOO",
"OOOOOOOOOOO@@@@#######$$$$$$$$$$$$$$$$$$$#######@@@@oOOO+++ooOOO",
"OOOOOOOOOOO@@@@#######$$$$$$$$$$$$$$$$$$$#######@@@@oOOO+++ooOOO",
"OOOOOOOOOOO@@@@#######$$$$$$$$$$$$$$$$$$$#######@@@@oOOOooo.OOOO",
"OOOOOOOOOOO@@@@#######$$$$$$$$$$$$$$$$$$$#######@@@@oOOOooo.OOOO",
"OOOOOOOOOOOO+++@@@@@@@###################@@@@@@@OOoooOOOooo.OOOO",
"OOOOooOOOOOOooo@@@@@@@###################@@@@@@@ooOOOOOOooo.OOOO",
"OOOOooOOXXXXooo@@@@@@@###################@@@@@@@oo++OOOOoooOOOOO",
"OOOOooOOXXXXoooOOOOO..@@@@@@@@@@@@@@@@@@@OOOOOOOoo++OOOOoooOOOOO",
"OOOOooOOXoooOOOOOOOO..@@@@@@@@@@@@@@@@@@@OOOOOOOoo++OooooooooOOO",
"OOOOooOOXoooOOOOOOOO..@@@@@@@@@@@@@@@@@@@OOOOOOOoo++OooooooooOOO",
"+oooooOO.oooOOOooOOO  @@@@@@@@@@@@@@@@@@@+++O     ooooooooo     ",
"+oooooOO.oooOOOooOOO   oooOOooooooooo  O++++O     ooooooooo     ",
"+oooooOO.oooOOOooOOO   oooOOooooooooo  O++++O     ooooooooo     ",
"+ooooooooooooooooOOOOOO        ooo   OOO++++OOOO     oooOOOOOOOO",
".oooooooooooooooo+++OOO        ooo   OOO....OOOO     oooOOOO++++",
".oooooooooooooooo+++OOO        ooo   OOO....OOOO     oooOOOO++++",
"    oo   oooooo     OOOOOOOOOOOOXXXXOOOO....OOOOOOOO....OOOO++++",
"    oo   oooooo     OOOOOOOOOOOOXXXXOOOO....OOOOOOOO....OOOO++++",
"    oo   oooooo     OOOOOOOOOOOO....OOOOOOOOOOOOOOOOOOOOOOOO....",
"OOOOOOooo   oooO....OOOOOOOOOOOO....OOOOOOOOOOOOOOOOOOOOOOOO....",
"OOOOOOooo   oooO....OOOOOOOOOOOO....OOOOOOOOOOOOOOOOOOOOOOOO...."
};
