/* XPM */
static char *_bc7afa1e4f945a5ddce6d90ac3e0c45Fi8ZXj2FQ8zLKB4o[] = {
/* columns rows colors chars-per-pixel */
"64 64 13 1 ",
"  c black",
". c #050305",
"X c #523A0F",
"o c #184A19",
"O c #735C30",
"+ c #CF0C0C",
"@ c #E80C0C",
"# c #E31414",
"$ c #E81515",
"% c #00CF03",
"& c #43A047",
"* c #4CAF50",
"= c #8BC34A",
/* pixels */
" oo     ******===========      oo******==****oo**====**=========",
"******oo*********=========  ooo******======******===============",
"******oo*********=========  ooo******======******===============",
"*==*****oo**=====**=======  ooooo**==========******==****=======",
"*==*****oo**=====**=======  ooooo**==========******==****=======",
"======******==============  ooo****==========****==******=======",
"======******==============  ooo****==========****==******=======",
"========******===****=====  ooo****==========****==******=======",
"========******===****===  oo***==**==========****====****=======",
"========****==*******===  oo***==**==========****====****=======",
"========****==*******===  oo*******========******====**=========",
"========****=====****===  oo*******========******====**=========",
"========****=====****=  oo**ooo**************oooo******=========",
"======******=====**===  oo**ooo**************oooo******=========",
"======******=====**===  ooooooooo**oooo******oooo********====***",
"********oooo*******===  ooooooooo**oooo******oooo********====***",
"********oooo*******===  ooooooooooooooo**oooooooo**==****====***",
"o*******oooo*********=  ooooooooooooooo**oooooooo**==****====***",
"o*******oooo*********===  ooooooo****oooooooo**oo********==*****",
"o**ooooooooo**===****===  ooooooo****oooooooo**oo********==*****",
"o**ooooooooo**===****=  ooooooooooooooooooo****oo****oo**==**===",
"oooooooo**oo*********=  ooooooooooooooooooo****oo****oo**==**===",
"oooooooo**oo*********==*    ooooooooooo**oooo**oooooooo*********",
"oooooo****oo*****oo**==*    ooooooooooo**oooo**oooooooo*********",
"o**ooooo**ooooooooo*******  ooo**oooooooooooooooooo**oooooooo***",
"o**ooooo**ooooooooo*******  ooo**oooooooooooooooooo**oooooooo***",
"oooooooooooooo***ooooooo  ooooo**oooooooooooooooooo****oo****ooo",
"oooooooooooooo***ooooooo  ooooo**oooooooooooooooooo****oo****ooo",
"oooooooooooooo*****oo***  oo   oo******ooooooooooooooooooooooooo",
"oooooooooooooo*****oo***  oo   oo******ooooooooooooooooooooooooo",
"*ooooooooooooooooooooooooo  ooo  oo******oooooooooo    ooooooooo",
"*ooooooooooooooooooooooooo  ooo  oo******oooooooooo    ooooooooo",
"***ooooooooooo     ooooooooo       oooo  oo        o     oo     ",
"***ooooooooooo     ooooooooo       oooo  oo        o     oo     ",
"o  ooo        o      oo                    XXOO      XXXX  oo   ",
"o  ooo               oo                    XXOO      XXXX  oo   ",
"      XXOO       XXXX  o       .           XXOO    XXXX  XX     ",
"      XXOO       XXXX   .........          XXOO    XXXX  XX     ",
"      XXOO    XXXXX  X  ...........    ..    XXOOXXXX  XX       ",
"      XXOO    XXXXX   ................ ..    XXOOXXXX  XX       ",
"        XXOOXXXXX   ...$......$............  XXOOXXXX           ",
"        XXOOXXXXX   ....$$ .$$.............X   XXXXOO           ",
"          XXXXOOO   ........................   XXXXOO           ",
"          XXXXOOO   ........................   XXXXOO           ",
"          XXXXOOO   .........................  XXXXOO           ",
"          XXXXOOO   .........................  XXXXOO           ",
"@      @  XXXXOOO   .........................  XXXXOO          #",
" @@  @@   XXXXOOO   ......+..................  XXXXOO    #  ### ",
"          XXXXOOO   ++..++...................  XXXXOO           ",
"          XXXXOOO   .............$......$..  XXXXXXXXOO         ",
"        XXXXXXXXXOO   ............$$..$$...  XXXXXXXXOO         ",
"        XXXXXXXXXOO   .................    XXXXXX  XXXXXX       ",
"      XXXXXX  XXXXXXX   ...............    XXXXXX  XXXXXX       ",
"      XXXXXX  XXXXXXX   ............  ...        *=             ",
"                      ..............  .          *=       X     ",
"            *=        .    ...  ..  oo    ******==========  =   ",
"o    ******==========  ==  &% oo  ******oo********============= ",
"o    ******==========  ==  &% oo  ******oo********============= ",
"***oo********==============  o******==****oo**====**============",
"***oo********==============  o******==****oo**====**============",
"=****oo**====**==========  oo*****======******==================",
"=****oo**====**==========  oo*****======******==================",
"===******================  ooo**==========******==****==========",
"=====******==****========  ooo**==========******==****=========="
};
